<svg xmlns="http://www.w3.org/2000/svg" viewBox="0 0 124.75 90.72"><defs><style>.cls-1{fill:#fff;}</style></defs><title>stream-platform-logo</title><g id="Capa_2" data-name="Capa 2"><g id="Capa_1-2" data-name="Capa 1"><path class="cls-1" d="M94.9,43.21,76.59,32.37a2.48,2.48,0,0,0-3.76,2.15V56.19a2.5,2.5,0,0,0,3.76,2.15L94.9,47.51A2.5,2.5,0,0,0,94.9,43.21Z"/><path class="cls-1" d="M79.45,0H29.39a5.18,5.18,0,0,0,0,10.36H40.77A7.16,7.16,0,0,1,48,16.9a7,7,0,0,1-7,7.46H15.62a7,7,0,1,0,0,14h15.2A7.15,7.15,0,0,1,38,44.89a7,7,0,0,1-7,7.47H7a7,7,0,0,0,0,14H40.77A7.15,7.15,0,0,1,48,72.89a7,7,0,0,1-7,7.46H37a5.19,5.19,0,0,0,0,10.37H79.45a45.33,45.33,0,0,0,45.3-45.36h0A45.33,45.33,0,0,0,79.45,0Zm3.33,76.72a31.36,31.36,0,1,1,31.33-31.36A31.34,31.34,0,0,1,82.78,76.72Z"/></g></g></svg>